<svg xmlns="http://www.w3.org/2000/svg" width="24.999" height="25.002" viewBox="0 0 24.999 25.002">
  <g id="Icône" transform="translate(0.5 0.5)">
    <path id="icone-erreur" d="M3.514,20.488A12,12,0,0,1,12,0,12,12,0,0,1,24,12,12,12,0,0,1,3.514,20.488ZM1.262,12A10.737,10.737,0,1,0,12,1.266,10.749,10.749,0,0,0,1.262,12Zm15.814,5.744L12,12.882,6.923,17.747a.577.577,0,0,1-.4.167.591.591,0,0,1-.458-.22.7.7,0,0,1,.052-.928L11.084,12,6.116,7.239a.694.694,0,0,1-.052-.929.58.58,0,0,1,.86-.052L12,11.124l5.076-4.865a.58.58,0,0,1,.86.052.693.693,0,0,1-.052.929L12.915,12l4.968,4.764a.692.692,0,0,1,.052.928.59.59,0,0,1-.455.22A.563.563,0,0,1,17.076,17.747Z" fill="#cb381f" stroke="rgba(0,0,0,0)" stroke-width="1"/>
  </g>
</svg>
