<svg xmlns="http://www.w3.org/2000/svg" width="24.999" height="25.002" viewBox="0 0 24.999 25.002">
  <g id="Icône" transform="translate(0.5 0.5)">
    <path id="icone-succes" d="M3.513,20.488A12,12,0,1,1,20.486,3.517,12,12,0,0,1,3.513,20.488ZM1.263,12A10.737,10.737,0,1,0,12,1.266,10.748,10.748,0,0,0,1.263,12Zm8.2,5.039h0Zm-.444-.186-3.8-3.78a.624.624,0,0,1,0-.89.638.638,0,0,1,.893,0l3.351,3.333,8.414-8.37a.634.634,0,0,1,.893,0,.625.625,0,0,1,0,.891l-8.86,8.816a.63.63,0,0,1-.893,0Z" fill="#4f813d" stroke="rgba(0,0,0,0)" stroke-width="1"/>
  </g>
</svg>
